<svg version="1.1" id="Layer_1" xmlns="http://www.w3.org/2000/svg" xmlns:xlink="http://www.w3.org/1999/xlink" x="0px" y="0px" viewBox="0 0 124 33" enable-background="new 0 0 124 33" xml:space="preserve"><path fill="#253B80" d="M46.211,6.749h-6.839c-0.468,0-0.866,0.34-0.939,0.802l-2.766,17.537c-0.055,0.346,0.213,0.658,0.564,0.658h3.265c0.468,0,0.866-0.34,0.939-0.803l0.746-4.73c0.072-0.463,0.471-0.803,0.938-0.803h2.165c4.505,0,7.105-2.18,7.784-6.5c0.306-1.89,0.013-3.375-0.872-4.415C50.224,7.353,48.5,6.749,46.211,6.749z M47,13.154c-0.374,2.454-2.249,2.454-4.062,2.454 h-1.032l0.724-4.583c0.043-0.277,0.283-0.481,0.563-0.481h0.473c1.235,0,2.4,0,3.002,0.704C47.027,11.668,47.137,12.292,47,13.154z"/><path fill="#253B80" d="M66.654,13.075h-3.275c-0.279,0-0.52,0.204-0.563,0.481l-0.145,0.916l-0.229-0.332 c-0.709-1.029-2.29-1.373-3.868-1.373c-3.619,0-6.71,2.741-7.312,6.586c-0.313,1.918,0.132,3.752,1.22,5.031 c0.998,1.176,2.426,1.666,4.125,1.666c2.916,0,4.533-1.875,4.533-1.875l-0.146,0.91c-0.055,0.348,0.213,0.66,0.562,0.66h2.95 c0.469,0,0.865-0.34,0.939-0.803l1.77-11.209C67.271,13.388,67.004,13.075,66.654,13.075z M62.089,19.449 c-0.316,1.871-1.801,3.127-3.695,3.127c-0.951,0-1.711-0.305-2.199-0.883c-0.484-0.574-0.668-1.391-0.514-2.301 c0.295-1.855,1.805-3.152,3.67-3.152c0.93,0,1.686,0.309,2.184,0.892C62.034,17.721,62.232,18.543,62.089,19.449z"/><path fill="#253B80" d="M84.096,13.075h-3.291c-0.314,0-0.609,0.156-0.787,0.417l-4.539,6.686l-1.924-6.425 c-0.121-0.402-0.492-0.678-0.912-0.678h-3.234c-0.393,0-0.666,0.384-0.541,0.754l3.625,10.638l-3.408,4.811 c-0.268,0.379,0.002,0.9-0.313,0.875l-3.21-0.021l5.488-7.75l2.052,6.963c0.126,0.428,0.519,0.723,0.965,0.723h3.587 c0.417,0,0.692-0.428,0.537-0.816L84.096,13.075z"/><path fill="#253B80" d="M96.188,6.749h-6.84c-0.467,0-0.865,0.34-0.938,0.802l-2.768,17.537c-0.054,0.346,0.213,0.658,0.564,0.658 h3.264c0.469,0,0.867-0.34,0.94-0.803l0.745-4.73c0.071-0.463,0.471-0.803,0.938-0.803h2.165c4.506,0,7.105-2.18,7.784-6.5 c0.307-1.89,0.014-3.375-0.871-4.415C100.2,7.353,98.477,6.749,96.188,6.749z M96.977,13.154c-0.375,2.454-2.25,2.454-4.062,2.454 h-1.031l0.723-4.583c0.043-0.277,0.283-0.481,0.564-0.481h0.473c1.234,0,2.398,0,3.002,0.704 C97.004,11.668,97.113,12.292,96.977,13.154z"/><path fill="#253B80" d="M110.869,19.449c-0.316,1.871-1.803,3.127-3.695,3.127c-0.951,0-1.713-0.305-2.199-0.883 c-0.484-0.574-0.668-1.391-0.514-2.301c0.297-1.855,1.805-3.152,3.67-3.152c0.93,0,1.686,0.309,2.184,0.892 C110.816,17.721,111.014,18.543,110.869,19.449z M116.631,13.075h-3.275c-0.279,0-0.518,0.204-0.562,0.481l-0.146,0.916 l-0.229-0.332c-0.709-1.029-2.289-1.373-3.867-1.373c-3.621,0-6.711,2.741-7.312,6.586c-0.314,1.918,0.131,3.752,1.219,5.031 c0.998,1.176,2.428,1.666,4.125,1.666c2.918,0,4.535-1.875,4.535-1.875l-0.146,0.91c-0.055,0.348,0.213,0.66,0.562,0.66h2.951 c0.469,0,0.867-0.34,0.939-0.803l1.768-11.209C117.248,13.388,116.98,13.075,116.631,13.075z"/><path fill="#179BD7" d="M119.295,7.23l-2.807,17.858c-0.055,0.346,0.213,0.658,0.562,0.658h2.822c0.469,0,0.867-0.34,0.939-0.803 l2.768-17.536c0.055-0.346-0.213-0.659-0.562-0.659h-3.16C119.578,6.749,119.338,6.953,119.295,7.23z"/><path fill="#253B80" d="M7.266,29.154l0.523-3.322l-1.165-0.027H1.061L4.927,1.292C4.939,1.218,4.978,1.149,5.035,1.1 c0.057-0.049,0.13-0.076,0.206-0.076h9.38c3.114,0,5.263,0.648,6.385,1.927c0.526,0.6,0.861,1.227,1.023,1.917 c0.17,0.724,0.173,1.589,0.007,2.644l-0.012,0.077v0.676l0.526,0.298c0.443,0.235,0.795,0.504,1.065,0.812 c0.45,0.513,0.741,1.165,0.864,1.938c0.127,0.795,0.085,1.741-0.123,2.812c-0.24,1.232-0.628,2.305-1.152,3.183 c-0.482,0.809-1.096,1.48-1.825,2c-0.696,0.494-1.523,0.869-2.458,1.109c-0.906,0.236-1.939,0.355-3.072,0.355h-0.73 c-0.522,0-1.029,0.188-1.427,0.525c-0.399,0.344-0.663,0.814-0.744,1.328l-0.055,0.299l-0.924,5.855l-0.042,0.215 c-0.011,0.068-0.03,0.102-0.058,0.125c-0.025,0.021-0.061,0.035-0.096,0.035H7.266z"/><path fill="#179BD7" d="M23.048,7.667L23.048,7.667L23.048,7.667c-0.028,0.179-0.06,0.362-0.096,0.55 c-1.237,6.351-5.469,8.545-10.874,8.545H9.326c-0.661,0-1.218,0.48-1.321,1.132l0,0l0,0L6.596,26.83l-0.399,2.533 c-0.067,0.428,0.263,0.814,0.695,0.814h4.881c0.578,0,1.069-0.42,1.16-0.99l0.048-0.248l0.919-5.832l0.059-0.32 c0.09-0.572,0.582-0.992,1.16-0.992h0.73c4.729,0,8.431-1.92,9.513-7.476c0.452-2.321,0.218-4.259-0.978-5.622 C24.022,8.286,23.573,7.945,23.048,7.667z"/><path fill="#222D65" d="M21.754,7.151c-0.189-0.055-0.384-0.105-0.584-0.15c-0.201-0.044-0.407-0.083-0.619-0.117 c-0.742-0.12-1.555-0.177-2.426-0.177h-7.352c-0.181,0-0.353,0.041-0.507,0.115C9.927,6.985,9.675,7.306,9.614,7.699L8.05,17.605 l-0.045,0.289c0.103-0.652,0.66-1.132,1.321-1.132h2.752c5.405,0,9.637-2.195,10.874-8.545c0.037-0.188,0.068-0.371,0.082-0.449 l.184-1.168l1.396-8.83C24.49,7.682,24.484,7.674,21.754,7.151z"/></svg>
